# xmcd
#
# Track frame offsets:
#	150
#	11856
#	23280
#	36185
#	43032
#	56209
#	69071
#	78484
#	90470
#	104397
#
# Disc length: 1557 seconds
#
# Revision: 1
# Processed by: cddbd v1.5.2PL0 Copyright (c) Steve Scherf et al.
# Submitted via: audiograbber 1.83.01
#
DISCID=7206130a
DTITLE=Various Artist - Bluegrass 101
DYEAR=2005
DGENRE=Bluegrass
TTITLE0=Wynn Osborne - Foggy Mountain Breakdown
TTITLE1=Jimmy Martin and Ricky Skaggs - Darlin' Corey
TTITLE2=Benny Martin - Wabash Cannonball
TTITLE3=Benny Martin and Josh Graves - Salty Dog Blues
TTITLE4=The Seldom Scene - Little Georgia Rose
TTITLE5=Jimmy Martin and Marty Stuart - Rose of Old Kentucky
TTITLE6=Mac Wiseman - Jimmie Brown the Newsboy
TTITLE7=The Osborne Brothers - Rocky Top
TTITLE8=Jim and Jesse - Great Speckled Bird
TTITLE9=The Bluegrass Cardinals - I'm Just a Used to Be to You
EXTD=
EXTT0=
EXTT1=
EXTT2=
EXTT3=
EXTT4=
EXTT5=
EXTT6=
EXTT7=
EXTT8=
EXTT9=
PLAYORDER=
